<svg id="Capa_1" enable-background="new 0 0 512 512" height="512" viewBox="0 0 512 512" width="512" xmlns="http://www.w3.org/2000/svg" xmlns:xlink="http://www.w3.org/1999/xlink"><linearGradient id="SVGID_1_" gradientUnits="userSpaceOnUse" x1="256" x2="256" y1="512" y2="332"><stop offset="0" stop-color="#addcff"/><stop offset=".5028" stop-color="#eaf6ff"/><stop offset="1" stop-color="#eaf6ff"/></linearGradient><linearGradient id="SVGID_2_" gradientUnits="userSpaceOnUse" x1="256" x2="256" y1="332" y2="0"><stop offset="0" stop-color="#5558ff"/><stop offset="1" stop-color="#00c0ff"/></linearGradient><g><g><g><path d="m127.958 362c-4.146-7.192-13.359-9.639-20.493-5.493l-16.465 9.507v-19.014c0-8.291-6.709-15-15-15s-15 6.709-15 15v19.014l-16.465-9.507c-7.192-4.146-16.333-1.699-20.493 5.493-4.146 7.178-1.685 16.348 5.493 20.493l16.463 9.507-16.463 9.507c-7.178 4.146-9.639 13.315-5.493 20.493 4.156 7.197 13.354 9.617 20.493 5.493l16.465-9.507v19.014c0 8.291 6.709 15 15 15s15-6.709 15-15v-19.014l16.465 9.507c7.153 4.132 16.344 1.691 20.493-5.493 4.146-7.178 1.685-16.348-5.493-20.493l-16.463-9.507 16.463-9.507c7.178-4.145 9.639-13.315 5.493-20.493zm192.993 37.5c-4.16-7.207-13.345-9.624-20.493-5.493l-29.458 17.009v-34.016c0-8.291-6.709-15-15-15s-15 6.709-15 15v34.016l-29.458-17.009c-7.192-4.131-16.362-1.714-20.493 5.493-4.146 7.178-1.685 16.348 5.493 20.493l29.454 17.007-29.454 17.007c-7.178 4.146-9.639 13.315-5.493 20.493 4.156 7.197 13.354 9.617 20.493 5.493l29.458-17.008v34.015c0 8.291 6.709 15 15 15s15-6.709 15-15v-34.015l29.458 17.009c7.153 4.132 16.344 1.691 20.493-5.493 4.146-7.178 1.685-16.348-5.493-20.493l-29.454-17.008 29.454-17.007c7.178-4.145 9.639-13.315 5.493-20.493zm161.514 2.007-16.463-9.507 16.463-9.507c7.178-4.146 9.639-13.315 5.493-20.493-4.175-7.192-13.359-9.639-20.493-5.493l-16.465 9.507v-19.014c0-8.291-6.709-15-15-15s-15 6.709-15 15v19.014l-16.465-9.507c-7.178-4.146-16.362-1.699-20.493 5.493-4.146 7.178-1.685 16.348 5.493 20.493l16.463 9.507-16.463 9.507c-7.178 4.146-9.639 13.315-5.493 20.493 4.156 7.197 13.354 9.617 20.493 5.493l16.465-9.507v19.014c0 8.291 6.709 15 15 15s15-6.709 15-15v-19.014l16.465 9.507c7.153 4.132 16.344 1.691 20.493-5.493 4.146-7.178 1.685-16.348-5.493-20.493z" fill="url(#SVGID_1_)"/></g></g><g><g><path d="m391 61c-2.593 0-5.142.176-7.91.469-31.553-38.54-77.388-61.469-127.09-61.469-49.688 0-95.522 22.929-127.09 61.469-2.607-.278-5.229-.469-7.91-.469-66.167 0-121 53.833-121 120s54.833 121 121 121c11.338 0 22.778-1.758 34.146-5.215 29.135 22.764 64.628 35.215 100.854 35.215s71.719-12.451 100.855-35.215c11.367 3.457 22.807 5.215 34.145 5.215 66.167 0 121-54.833 121-121s-54.833-120-121-120z" fill="url(#SVGID_2_)"/></g></g></g></svg>